<svg width="328" height="330" viewBox="0 0 328 330" fill="none" xmlns="http://www.w3.org/2000/svg">
<g clip-path="url(#clip0_801_185)">
<rect x="-2" width="330" height="330" rx="17" fill="#E9622C"/>
<path d="M338.236 328.261L174.985 165.01L282.478 57.5176L225.012 0.0514102L117.519 107.544L70.3607 60.3859L16.8269 113.92L63.9852 161.078L37.9318 187.131L0.187899 224.875L57.6541 282.342L95.398 244.598L121.451 218.544L284.702 381.795L338.236 328.261Z" fill="black"/>
<g filter="url(#filter0_i_801_185)">
<path d="M385.362 375.386L222.143 212.168L329.636 104.675L272.138 47.1764L164.645 154.669L117.487 107.511L63.9528 161.045L111.111 208.203L85.0578 234.256L47.3139 272L104.812 329.499L142.556 291.755L168.61 265.701L331.828 428.92L385.362 375.386Z" fill="white"/>
</g>
</g>
<defs>
<filter id="filter0_i_801_185" x="47.3135" y="47.1763" width="338.048" height="388.731" filterUnits="userSpaceOnUse" color-interpolation-filters="sRGB">
<feFlood flood-opacity="0" result="BackgroundImageFix"/>
<feBlend mode="normal" in="SourceGraphic" in2="BackgroundImageFix" result="shape"/>
<feColorMatrix in="SourceAlpha" type="matrix" values="0 0 0 0 0 0 0 0 0 0 0 0 0 0 0 0 0 0 127 0" result="hardAlpha"/>
<feOffset dy="6.98789"/>
<feGaussianBlur stdDeviation="3.49395"/>
<feComposite in2="hardAlpha" operator="arithmetic" k2="-1" k3="1"/>
<feColorMatrix type="matrix" values="0 0 0 0 0 0 0 0 0 0 0 0 0 0 0 0 0 0 0.25 0"/>
<feBlend mode="normal" in2="shape" result="effect1_innerShadow_801_185"/>
</filter>
<clipPath id="clip0_801_185">
<rect width="328" height="330" rx="8" fill="white"/>
</clipPath>
</defs>
</svg>
